<?xml version="1.0" encoding="UTF-8"?>
<svg viewBox="0 0 712.09 444.36" xmlns="http://www.w3.org/2000/svg">
 <g fill="#fff" stroke="#000">
  <g stroke-width="3.29">
   <path d="m10.014 19.402s318.35-0.63437 326.15 3.2665c7.8017 3.9008 37.708 6.5014 37.708 6.5014s-28.606 3.9008-44.21 24.705c-15.604 20.805-29.907 40.309-29.907 40.309l-289.83 1.0346"/>
   <path d="m325.81 58.359c19.37-27.979 41.609-25.109 48.783-28.696s22.957 43.761 7.174 53.088c-15.783 9.3262-53.805 43.044-53.805 43.044l-0.7174 1.4348"/>
   <path d="m455.66 49.751c-7.8914-30.131 7.8914-37.305-24.392-35.153-32.283 2.1522-53.088-2.8696-54.522 8.6088-1.4348 11.478-10.044 66.718 9.3262 74.61 19.37 7.8914 80.349 38.74 82.501 24.392 2.1522-14.348-7.8914-19.37-7.8914-19.37l-5.0218-53.088z"/>
  </g>
  <path d="m702.89 99.52l-210.01 0.5676 1.4364-82.648 210.07 1.2833" stroke-width="3.234"/>
  <g stroke-width="3.29">
   <path d="m452.79 28.229s88.24 22.957 84.653 31.566c-3.587 8.6088-25.109 61.696-35.87 59.544-10.761-2.1522-40.892-10.044-42.327-17.218-1.4348-7.174-5.7392-73.175-6.4566-73.892z"/>
   <path d="m530.98 54.055s78.806-8.938 68.87-17.218c-12.913-10.761-62.414-39.457-77.479-35.153-15.065 4.3044-60.979 28.696-60.979 28.696l69.588 23.674z"/>
   <path d="m617.79 397.17s1.4348-316.57-2.1522-321.59c-3.587-5.0218-1.4348-49.501-36.587-38.022-35.153 11.478-47.348 16.5-47.348 16.5s15.783-9.3262 17.218 5.7392c1.4348 15.065-7.0218 337.22-7.0218 337.22"/>
   <path d="m250.84 434.46s4.6324-216.62 2.8248-237.5c-2.4212-27.979 63.714-134.65 71.516-137.25 7.8017-2.6006 5.2011 375.2 5.2011 375.2"/>
  </g>
 </g>
</svg>
