<?xml version="1.0" encoding="UTF-8"?>
<!DOCTYPE svg PUBLIC "-//W3C//DTD SVG 1.1//EN" "http://www.w3.org/Graphics/SVG/1.1/DTD/svg11.dtd">
<!-- Creator: CorelDRAW 2018 (64 Bit) -->
<svg xmlns="http://www.w3.org/2000/svg" xml:space="preserve" width="297mm" height="210mm" version="1.1" style="shape-rendering:geometricPrecision; text-rendering:geometricPrecision; image-rendering:optimizeQuality; fill-rule:evenodd; clip-rule:evenodd"
viewBox="0 0 29700 21000"
 xmlns:xlink="http://www.w3.org/1999/xlink">
 <defs>
  <style type="text/css">
   <![CDATA[
    .str1 {stroke:#373435;stroke-width:20;stroke-miterlimit:22.9256}
    .str0 {stroke:#FEFEFE;stroke-width:7.62;stroke-miterlimit:22.9256}
    .fil2 {fill:none}
    .fil1 {fill:none;fill-rule:nonzero}
    .fil0 {fill:#3E4095;fill-rule:nonzero}
   ]]>
  </style>
 </defs>
 <g id="Camada_x0020_1">
  <metadata id="CorelCorpID_0Corel-Layer"/>
  <path class="fil0" d="M5344.32 11675.02l0 -174.48 330.61 0 0 -3206.03 -339.1 0 0 -163.58 2344.67 0 24.72 1030.52 -144.11 0c-67.82,-318.97 -158.25,-543.43 -271.27,-672.47 -113.03,-129.95 -276.93,-194.47 -492.39,-194.47l-423.15 0 2.11 1455.8c9.9,1.82 21.91,2.72 36.03,3.63 14.84,0.91 33.91,1.82 59.34,1.82 146.94,0 259.26,-51.8 336.26,-154.48 77.72,-102.69 127.87,-267.17 151.19,-494.36l139.87 0 0 1510.33 -139.87 0c-14.84,-245.36 -62.17,-420.75 -140.58,-527.07 -78.42,-106.33 -199.93,-159.94 -363.82,-159.94l-80.53 0 0 1570.3 402.66 0 0 174.48 -1432.64 0z"/>
  <path id="1" class="fil0" d="M8197.6 10355.53l559.5 0 0 -413.48c0,-115.41 -22.6,-199.01 -67.11,-250.81 -44.51,-51.8 -115.86,-77.24 -213.34,-77.24 -93.96,0 -163.9,27.26 -209.81,81.78 -45.92,53.62 -69.24,136.32 -69.24,246.27l0 413.48zm1034.23 599.77l97.48 42.71c-70.64,249.9 -173.78,435.29 -309.41,556.15 -136.35,120.86 -310.84,180.84 -524.89,180.84 -293.87,0 -529.11,-99.96 -704.31,-300.8 -175.2,-200.83 -262.8,-468 -262.8,-801.5 0,-329.88 90.43,-604.32 271.98,-822.41 181.56,-218.1 410.44,-327.15 686.66,-327.15 253.61,0 454.24,89.96 601.18,270.8 146.93,179.93 220.4,426.2 220.4,738.81l0 26.35 -1110.52 0 0 535.25c0,208.1 25.44,350.77 75.59,428.02 50.16,77.24 137.76,116.32 263.5,116.32 169.55,0 312.25,-53.62 428.1,-161.76 115.86,-107.23 204.87,-268.08 267.04,-481.63z"/>
  <path id="2" class="fil0" d="M9571.62 11675.02l0 -163.57 224.65 0 0 -1799.31 -228.89 0 0 -163.57c134.23,-7.27 267.74,-15.45 400.56,-26.36 133.51,-9.99 267.03,-23.62 400.54,-39.07l0 584.32c56.52,-183.57 130.69,-326.24 222.53,-429.84 91.83,-102.68 190.03,-154.48 295.29,-154.48 104.55,0 192.15,43.62 262.79,130.86 69.94,87.24 105.26,194.47 105.26,322.6 0,113.59 -28.26,207.19 -84.77,280.8 -57.22,73.61 -128.57,110.87 -216.17,110.87 -75.59,0 -139.87,-35.44 -192.15,-106.33 -52.98,-71.79 -79.12,-157.21 -79.12,-258.99 0,-39.07 8.48,-79.06 24.73,-119.95 16.95,-40.89 25.42,-68.16 25.42,-82.7 0,-9.08 -3.53,-16.35 -9.88,-22.71 -5.66,-6.36 -13.43,-9.09 -23.32,-9.09 -60.75,0 -128.57,88.15 -204.15,263.53 -75.6,176.3 -113.74,360.77 -113.74,554.33l0 965.09 305.18 0 0 163.57 -1114.76 0z"/>
  <path id="3" class="fil0" d="M11428.13 11675.02l0 -163.57 224.65 0 0 -1799.31 -228.88 0 0 -163.57c134.22,-7.27 267.73,-15.45 400.55,-26.36 133.51,-9.99 267.03,-23.62 400.54,-39.07l0 584.32c56.52,-183.57 130.7,-326.24 222.54,-429.84 91.83,-102.68 190.03,-154.48 295.28,-154.48 104.55,0 192.16,43.62 262.8,130.86 69.94,87.24 105.25,194.47 105.25,322.6 0,113.59 -28.25,207.19 -84.77,280.8 -57.21,73.61 -128.57,110.87 -216.16,110.87 -75.6,0 -139.88,-35.44 -192.16,-106.33 -52.98,-71.79 -79.12,-157.21 -79.12,-258.99 0,-39.07 8.48,-79.06 24.73,-119.95 16.95,-40.89 25.43,-68.16 25.43,-82.7 0,-9.08 -3.53,-16.35 -9.89,-22.71 -5.65,-6.36 -13.43,-9.09 -23.31,-9.09 -60.76,0 -128.57,88.15 -204.16,263.53 -75.59,176.3 -113.74,360.77 -113.74,554.33l0 965.09 305.19 0 0 163.57 -1114.77 0z"/>
  <path id="4" class="fil0" d="M14437.56 11358.78c-84.78,129.95 -176.62,224.46 -276.93,282.62 -99.61,59.06 -219.7,88.14 -358.87,88.14 -142,0 -251.49,-46.34 -329.2,-138.12 -77,-92.7 -115.86,-224.46 -115.86,-394.4 0,-230.82 96.08,-415.29 287.52,-553.42 192.16,-137.22 452.13,-206.28 780.62,-206.28l0 -516.17c0,-119.04 -19.78,-198.1 -58.64,-237.18 -39.56,-39.08 -114.44,-59.07 -224.64,-59.07 -71.35,0 -125.75,10.91 -162.49,31.81 -36.73,21.81 -54.39,52.71 -54.39,93.6 0,10.9 12.72,45.44 38.15,105.41 25.43,59.07 38.15,119.05 38.15,179.93 0,102.69 -24.73,181.75 -73.47,237.18 -48.75,55.44 -118.68,82.7 -209.82,82.7 -80.53,0 -141.99,-28.17 -185.79,-85.42 -43.09,-57.25 -64.99,-139.95 -64.99,-248.09 0,-170.84 68.53,-303.52 204.86,-397.12 136.35,-94.51 329.91,-141.76 579.28,-141.76 110.21,0 210.52,10 300.24,30.9 89.71,19.99 163.18,49.98 221.11,89.05 64.99,42.71 110.21,95.42 135.64,157.21 25.43,62.71 38.15,175.39 38.15,338.96l0 1101.4c0,64.52 10.59,111.77 31.78,140.85 21.9,29.99 55.11,44.53 101.02,44.53 19.08,0 39.57,-8.18 60.76,-24.54 21.9,-16.35 36.74,-24.53 44.51,-24.53 11.3,0 21.19,5.45 28.96,16.36 8.48,10.9 12.72,23.62 12.72,39.98 0,67.25 -40.27,140.86 -120.8,219.01 -81.25,78.15 -173.08,117.22 -276.93,117.22 -92.54,0 -173.07,-32.71 -241.6,-99.05 -69.23,-65.43 -118.68,-156.3 -149.05,-271.71zm-12.72 -774.25l-49.45 0c-170.96,0 -291.05,31.81 -360.29,94.51 -68.52,62.7 -103.14,169.03 -103.14,319.88 0,154.48 18.37,264.44 55.11,330.78 36.02,66.34 96.07,99.96 178.73,99.96 82.65,0 149.76,-35.44 201.33,-106.32 51.57,-70.88 77.71,-165.39 77.71,-281.71l0 -457.1z"/>
  <path id="5" class="fil0" d="M15379.23 11675.02l0 -114.5 932.5 -1848.38 -288.23 0c-98.2,0 -178.72,45.44 -243.01,137.22 -64.29,90.88 -134.23,268.99 -210.52,533.43l-114.44 0 20.49 -834.22 1484.22 0 0 129.95 -928.26 1832.93 288.23 0c118.68,0 216.16,-52.71 293.88,-157.22 77,-104.5 158.94,-300.79 244.42,-589.77l114.45 0 -29.68 910.56 -1564.05 0z"/>
  <path id="6" class="fil0" d="M18565.96 11500.54l334.86 0 0 -3206.03 -334.86 0 0 -163.58 1412.87 0c201.34,0 373.71,24.54 517.12,74.52 143.4,49.98 274.8,130.86 393.48,242.63 169.55,156.31 302.36,362.59 397.72,619.76 96.08,258.09 144.11,535.25 144.11,833.32 0,300.79 -48.74,579.78 -146.94,839.68 -98.19,258.99 -233.82,468 -407.61,627.93 -114.43,104.51 -245.84,181.75 -394.89,231.73 -149.06,49.98 -322.14,74.52 -519.94,74.52l-1395.92 0 0 -174.48zm1029.99 0l351.8 0c158.25,0 274.1,-15.45 345.45,-45.44 72.05,-29.98 132.1,-83.6 180.14,-159.93 62.17,-97.24 105.96,-232.64 131.4,-404.39 25.43,-172.66 38.15,-432.56 38.15,-780.61l0 -249.9c0,-390.76 -8.49,-669.75 -26.15,-838.77 -16.94,-169.03 -45.91,-303.52 -87.59,-404.39 -49.45,-119.05 -114.44,-202.65 -193.56,-250.81 -79.12,-48.17 -208.4,-71.79 -387.84,-71.79l-351.8 0 0 3206.03z"/>
  <path id="7" class="fil0" d="M21813.45 10611.79c0,-331.69 91.84,-602.49 275.51,-813.32 183.67,-209.92 421.04,-315.33 712.09,-315.33 292.46,0 531.23,104.5 715.61,314.42 184.39,209.01 276.22,478.91 276.22,808.78 0,329.87 -92.54,600.68 -277.62,811.51 -185.09,211.73 -423.16,317.15 -714.21,317.15 -291.05,0 -528.42,-104.51 -712.09,-314.43 -183.67,-209.01 -275.51,-478.9 -275.51,-808.78zm991.83 -997.79c-130.68,0 -219.69,53.61 -265.61,160.84 -45.92,108.14 -69.24,385.31 -69.24,832.41l0 219.01c0,338.96 23.32,553.42 69.95,643.38 47.32,89.97 135.62,134.5 264.9,134.5 129.28,0 216.88,-50.89 262.1,-151.76 45.91,-101.78 68.51,-356.23 68.51,-764.25l0 -315.33c0,-324.42 -23.3,-532.53 -69.93,-622.49 -47.33,-90.88 -134.22,-136.31 -260.68,-136.31z"/>
  <path id="8" class="fil0" d="M24305.05 8625.29c0,-104.51 28.96,-193.56 86.9,-268.08 58.63,-74.52 127.86,-111.77 209.8,-111.77 79.83,0 148.36,36.34 204.17,109.95 55.8,73.61 84.06,163.58 84.06,269.9 0,107.23 -27.55,197.2 -82.65,271.71 -55.81,74.52 -124.33,111.78 -205.58,111.78 -81.94,0 -151.17,-37.26 -209.8,-112.69 -57.94,-75.42 -86.9,-165.39 -86.9,-270.8zm593.4 2679.87c0,478.91 -77.7,858.76 -233.12,1141.38 -154.7,281.71 -361.69,422.56 -619.54,422.56 -113.03,0 -204.87,-38.16 -275.51,-114.5 -69.94,-75.42 -105.26,-173.57 -105.26,-294.43 0,-88.15 21.9,-159.94 64.99,-213.55 43.8,-53.62 101.02,-80.88 170.96,-80.88 67.82,0 124.33,26.35 168.13,79.97 44.5,52.71 66.41,119.04 66.41,199.01 0,24.54 -4.95,55.44 -14.84,92.69 -9.18,37.26 -14.12,61.8 -14.12,74.52 0,20.9 7.76,38.17 22.6,51.8 15.54,13.63 35.32,19.99 60.05,19.99 48.74,0 81.94,-32.71 100.31,-98.14 19.08,-65.43 28.26,-210.83 28.26,-436.2l0 -2437.24 -296.7 0 0 -163.57c161.77,-5.45 315.07,-13.63 460.59,-24.54 145.53,-10.9 283.99,-24.53 414.68,-40.89l2.11 1822.02z"/>
  <path id="9" class="fil0" d="M25348.46 10611.79c0,-331.69 91.84,-602.49 275.51,-813.32 183.67,-209.92 421.03,-315.33 712.08,-315.33 292.47,0 531.24,104.5 715.62,314.42 184.39,209.01 276.22,478.91 276.22,808.78 0,329.87 -92.54,600.68 -277.63,811.51 -185.08,211.73 -423.15,317.15 -714.21,317.15 -291.05,0 -528.41,-104.51 -712.08,-314.43 -183.67,-209.01 -275.51,-478.9 -275.51,-808.78zm991.83 -997.79c-130.68,0 -219.69,53.61 -265.61,160.84 -45.92,108.14 -69.24,385.31 -69.24,832.41l0 219.01c0,338.96 23.32,553.42 69.94,643.38 47.33,89.97 135.63,134.5 264.91,134.5 129.28,0 216.88,-50.89 262.09,-151.76 45.92,-101.78 68.52,-356.23 68.52,-764.25l0 -315.33c0,-324.42 -23.3,-532.53 -69.93,-622.49 -47.33,-90.88 -134.22,-136.31 -260.68,-136.31z"/>
  <path id="10" class="fil0" d="M27683.23 11675.02l0 -790.6 105.96 0c48.05,234.45 123.63,411.66 226.07,530.7 103.14,119.05 229.59,178.11 379.35,178.11 118.68,0 215.47,-37.25 291.05,-110.86 74.89,-73.61 112.32,-165.39 112.32,-275.35 0,-138.13 -123.62,-227.19 -370.17,-266.26 -70.64,-10.91 -125.03,-19.99 -163.18,-29.08 -218.29,-40.89 -370.88,-111.78 -458.48,-213.56 -87.6,-100.87 -131.39,-251.72 -131.39,-452.55 0,-232.64 53.68,-418.02 161.77,-556.15 107.38,-137.22 252.9,-206.28 436.57,-206.28 69.24,0 138.46,10.9 206.99,31.81 69.23,21.8 134.22,52.7 194.97,93.6l89.01 -99.06 84.78 0 12.72 606.13 -105.97 0c-43.8,-165.39 -105.96,-290.79 -186.5,-375.31 -79.83,-84.51 -176.61,-126.31 -291.05,-126.31 -112.32,0 -204.16,28.17 -277.63,85.42 -72.76,56.34 -109.5,125.41 -109.5,207.19 0,117.23 142.71,199.02 428.1,244.45 45.92,7.27 81.95,13.63 108.09,19.09 221.82,35.44 377.23,109.95 466.24,222.64 89.02,112.68 133.53,286.25 133.53,522.52 0,255.36 -57.23,456.19 -171.67,601.59 -114.44,145.4 -271.98,218.1 -471.9,218.1 -96.78,0 -185.09,-15.45 -265.62,-46.35 -80.54,-30.9 -151.88,-74.52 -211.93,-132.67l-120.8 119.04 -101.73 0z"/>
  <path id="11" class="fil1 str0" d="M5344.32 11675.02l0 -174.48 330.61 0 0 -3206.03 -339.1 0 0 -163.58 2344.67 0 24.72 1030.52 -144.11 0c-67.82,-318.97 -158.25,-543.43 -271.27,-672.47 -113.03,-129.95 -276.93,-194.47 -492.39,-194.47l-423.15 0 2.11 1455.8c9.9,1.82 21.91,2.72 36.03,3.63 14.84,0.91 33.91,1.82 59.34,1.82 146.94,0 259.26,-51.8 336.26,-154.48 77.72,-102.69 127.87,-267.17 151.19,-494.36l139.87 0 0 1510.33 -139.87 0c-14.84,-245.36 -62.17,-420.75 -140.58,-527.07 -78.42,-106.33 -199.93,-159.94 -363.82,-159.94l-80.53 0 0 1570.3 402.66 0 0 174.48 -1432.64 0z"/>
  <path id="12" class="fil1 str0" d="M8197.6 10355.53l559.5 0 0 -413.48c0,-115.41 -22.6,-199.01 -67.11,-250.81 -44.51,-51.8 -115.86,-77.24 -213.34,-77.24 -93.96,0 -163.9,27.26 -209.81,81.78 -45.92,53.62 -69.24,136.32 -69.24,246.27l0 413.48zm1034.23 599.77l97.48 42.71c-70.64,249.9 -173.78,435.29 -309.41,556.15 -136.35,120.86 -310.84,180.84 -524.89,180.84 -293.87,0 -529.11,-99.96 -704.31,-300.8 -175.2,-200.83 -262.8,-468 -262.8,-801.5 0,-329.88 90.43,-604.32 271.98,-822.41 181.56,-218.1 410.44,-327.15 686.66,-327.15 253.61,0 454.24,89.96 601.18,270.8 146.93,179.93 220.4,426.2 220.4,738.81l0 26.35 -1110.52 0 0 535.25c0,208.1 25.44,350.77 75.59,428.02 50.16,77.24 137.76,116.32 263.5,116.32 169.55,0 312.25,-53.62 428.1,-161.76 115.86,-107.23 204.87,-268.08 267.04,-481.63z"/>
  <path id="13" class="fil1 str0" d="M9571.62 11675.02l0 -163.57 224.65 0 0 -1799.31 -228.89 0 0 -163.57c134.23,-7.27 267.74,-15.45 400.56,-26.36 133.51,-9.99 267.03,-23.62 400.54,-39.07l0 584.32c56.52,-183.57 130.69,-326.24 222.53,-429.84 91.83,-102.68 190.03,-154.48 295.29,-154.48 104.55,0 192.15,43.62 262.79,130.86 69.94,87.24 105.26,194.47 105.26,322.6 0,113.59 -28.26,207.19 -84.77,280.8 -57.22,73.61 -128.57,110.87 -216.17,110.87 -75.59,0 -139.87,-35.44 -192.15,-106.33 -52.98,-71.79 -79.12,-157.21 -79.12,-258.99 0,-39.07 8.48,-79.06 24.73,-119.95 16.95,-40.89 25.42,-68.16 25.42,-82.7 0,-9.08 -3.53,-16.35 -9.88,-22.71 -5.66,-6.36 -13.43,-9.09 -23.32,-9.09 -60.75,0 -128.57,88.15 -204.15,263.53 -75.6,176.3 -113.74,360.77 -113.74,554.33l0 965.09 305.18 0 0 163.57 -1114.76 0z"/>
  <path id="14" class="fil1 str0" d="M11428.13 11675.02l0 -163.57 224.65 0 0 -1799.31 -228.88 0 0 -163.57c134.22,-7.27 267.73,-15.45 400.55,-26.36 133.51,-9.99 267.03,-23.62 400.54,-39.07l0 584.32c56.52,-183.57 130.7,-326.24 222.54,-429.84 91.83,-102.68 190.03,-154.48 295.28,-154.48 104.55,0 192.16,43.62 262.8,130.86 69.94,87.24 105.25,194.47 105.25,322.6 0,113.59 -28.25,207.19 -84.77,280.8 -57.21,73.61 -128.57,110.87 -216.16,110.87 -75.6,0 -139.88,-35.44 -192.16,-106.33 -52.98,-71.79 -79.12,-157.21 -79.12,-258.99 0,-39.07 8.48,-79.06 24.73,-119.95 16.95,-40.89 25.43,-68.16 25.43,-82.7 0,-9.08 -3.53,-16.35 -9.89,-22.71 -5.65,-6.36 -13.43,-9.09 -23.31,-9.09 -60.76,0 -128.57,88.15 -204.16,263.53 -75.59,176.3 -113.74,360.77 -113.74,554.33l0 965.09 305.19 0 0 163.57 -1114.77 0z"/>
  <path id="15" class="fil1 str0" d="M14437.56 11358.78c-84.78,129.95 -176.62,224.46 -276.93,282.62 -99.61,59.06 -219.7,88.14 -358.87,88.14 -142,0 -251.49,-46.34 -329.2,-138.12 -77,-92.7 -115.86,-224.46 -115.86,-394.4 0,-230.82 96.08,-415.29 287.52,-553.42 192.16,-137.22 452.13,-206.28 780.62,-206.28l0 -516.17c0,-119.04 -19.78,-198.1 -58.64,-237.18 -39.56,-39.08 -114.44,-59.07 -224.64,-59.07 -71.35,0 -125.75,10.91 -162.49,31.81 -36.73,21.81 -54.39,52.71 -54.39,93.6 0,10.9 12.72,45.44 38.15,105.41 25.43,59.07 38.15,119.05 38.15,179.93 0,102.69 -24.73,181.75 -73.47,237.18 -48.75,55.44 -118.68,82.7 -209.82,82.7 -80.53,0 -141.99,-28.17 -185.79,-85.42 -43.09,-57.25 -64.99,-139.95 -64.99,-248.09 0,-170.84 68.53,-303.52 204.86,-397.12 136.35,-94.51 329.91,-141.76 579.28,-141.76 110.21,0 210.52,10 300.24,30.9 89.71,19.99 163.18,49.98 221.11,89.05 64.99,42.71 110.21,95.42 135.64,157.21 25.43,62.71 38.15,175.39 38.15,338.96l0 1101.4c0,64.52 10.59,111.77 31.78,140.85 21.9,29.99 55.11,44.53 101.02,44.53 19.08,0 39.57,-8.18 60.76,-24.54 21.9,-16.35 36.74,-24.53 44.51,-24.53 11.3,0 21.19,5.45 28.96,16.36 8.48,10.9 12.72,23.62 12.72,39.98 0,67.25 -40.27,140.86 -120.8,219.01 -81.25,78.15 -173.08,117.22 -276.93,117.22 -92.54,0 -173.07,-32.71 -241.6,-99.05 -69.23,-65.43 -118.68,-156.3 -149.05,-271.71zm-12.72 -774.25l-49.45 0c-170.96,0 -291.05,31.81 -360.29,94.51 -68.52,62.7 -103.14,169.03 -103.14,319.88 0,154.48 18.37,264.44 55.11,330.78 36.02,66.34 96.07,99.96 178.73,99.96 82.65,0 149.76,-35.44 201.33,-106.32 51.57,-70.88 77.71,-165.39 77.71,-281.71l0 -457.1z"/>
  <path id="16" class="fil1 str0" d="M15379.23 11675.02l0 -114.5 932.5 -1848.38 -288.23 0c-98.2,0 -178.72,45.44 -243.01,137.22 -64.29,90.88 -134.23,268.99 -210.52,533.43l-114.44 0 20.49 -834.22 1484.22 0 0 129.95 -928.26 1832.93 288.23 0c118.68,0 216.16,-52.71 293.88,-157.22 77,-104.5 158.94,-300.79 244.42,-589.77l114.45 0 -29.68 910.56 -1564.05 0z"/>
  <path id="17" class="fil1 str0" d="M18565.96 11500.54l334.86 0 0 -3206.03 -334.86 0 0 -163.58 1412.87 0c201.34,0 373.71,24.54 517.12,74.52 143.4,49.98 274.8,130.86 393.48,242.63 169.55,156.31 302.36,362.59 397.72,619.76 96.08,258.09 144.11,535.25 144.11,833.32 0,300.79 -48.74,579.78 -146.94,839.68 -98.19,258.99 -233.82,468 -407.61,627.93 -114.43,104.51 -245.84,181.75 -394.89,231.73 -149.06,49.98 -322.14,74.52 -519.94,74.52l-1395.92 0 0 -174.48zm1029.99 0l351.8 0c158.25,0 274.1,-15.45 345.45,-45.44 72.05,-29.98 132.1,-83.6 180.14,-159.93 62.17,-97.24 105.96,-232.64 131.4,-404.39 25.43,-172.66 38.15,-432.56 38.15,-780.61l0 -249.9c0,-390.76 -8.49,-669.75 -26.15,-838.77 -16.94,-169.03 -45.91,-303.52 -87.59,-404.39 -49.45,-119.05 -114.44,-202.65 -193.56,-250.81 -79.12,-48.17 -208.4,-71.79 -387.84,-71.79l-351.8 0 0 3206.03z"/>
  <path id="18" class="fil1 str0" d="M21813.45 10611.79c0,-331.69 91.84,-602.49 275.51,-813.32 183.67,-209.92 421.04,-315.33 712.09,-315.33 292.46,0 531.23,104.5 715.61,314.42 184.39,209.01 276.22,478.91 276.22,808.78 0,329.87 -92.54,600.68 -277.62,811.51 -185.09,211.73 -423.16,317.15 -714.21,317.15 -291.05,0 -528.42,-104.51 -712.09,-314.43 -183.67,-209.01 -275.51,-478.9 -275.51,-808.78zm991.83 -997.79c-130.68,0 -219.69,53.61 -265.61,160.84 -45.92,108.14 -69.24,385.31 -69.24,832.41l0 219.01c0,338.96 23.32,553.42 69.95,643.38 47.32,89.97 135.62,134.5 264.9,134.5 129.28,0 216.88,-50.89 262.1,-151.76 45.91,-101.78 68.51,-356.23 68.51,-764.25l0 -315.33c0,-324.42 -23.3,-532.53 -69.93,-622.49 -47.33,-90.88 -134.22,-136.31 -260.68,-136.31z"/>
  <path id="19" class="fil1 str0" d="M24305.05 8625.29c0,-104.51 28.96,-193.56 86.9,-268.08 58.63,-74.52 127.86,-111.77 209.8,-111.77 79.83,0 148.36,36.34 204.17,109.95 55.8,73.61 84.06,163.58 84.06,269.9 0,107.23 -27.55,197.2 -82.65,271.71 -55.81,74.52 -124.33,111.78 -205.58,111.78 -81.94,0 -151.17,-37.26 -209.8,-112.69 -57.94,-75.42 -86.9,-165.39 -86.9,-270.8zm593.4 2679.87c0,478.91 -77.7,858.76 -233.12,1141.38 -154.7,281.71 -361.69,422.56 -619.54,422.56 -113.03,0 -204.87,-38.16 -275.51,-114.5 -69.94,-75.42 -105.26,-173.57 -105.26,-294.43 0,-88.15 21.9,-159.94 64.99,-213.55 43.8,-53.62 101.02,-80.88 170.96,-80.88 67.82,0 124.33,26.35 168.13,79.97 44.5,52.71 66.41,119.04 66.41,199.01 0,24.54 -4.95,55.44 -14.84,92.69 -9.18,37.26 -14.12,61.8 -14.12,74.52 0,20.9 7.76,38.17 22.6,51.8 15.54,13.63 35.32,19.99 60.05,19.99 48.74,0 81.94,-32.71 100.31,-98.14 19.08,-65.43 28.26,-210.83 28.26,-436.2l0 -2437.24 -296.7 0 0 -163.57c161.77,-5.45 315.07,-13.63 460.59,-24.54 145.53,-10.9 283.99,-24.53 414.68,-40.89l2.11 1822.02z"/>
  <path id="20" class="fil1 str0" d="M25348.46 10611.79c0,-331.69 91.84,-602.49 275.51,-813.32 183.67,-209.92 421.03,-315.33 712.08,-315.33 292.47,0 531.24,104.5 715.62,314.42 184.39,209.01 276.22,478.91 276.22,808.78 0,329.87 -92.54,600.68 -277.63,811.51 -185.08,211.73 -423.15,317.15 -714.21,317.15 -291.05,0 -528.41,-104.51 -712.08,-314.43 -183.67,-209.01 -275.51,-478.9 -275.51,-808.78zm991.83 -997.79c-130.68,0 -219.69,53.61 -265.61,160.84 -45.92,108.14 -69.24,385.31 -69.24,832.41l0 219.01c0,338.96 23.32,553.42 69.94,643.38 47.33,89.97 135.63,134.5 264.91,134.5 129.28,0 216.88,-50.89 262.09,-151.76 45.92,-101.78 68.52,-356.23 68.52,-764.25l0 -315.33c0,-324.42 -23.3,-532.53 -69.93,-622.49 -47.33,-90.88 -134.22,-136.31 -260.68,-136.31z"/>
  <path id="21" class="fil1 str0" d="M27683.23 11675.02l0 -790.6 105.96 0c48.05,234.45 123.63,411.66 226.07,530.7 103.14,119.05 229.59,178.11 379.35,178.11 118.68,0 215.47,-37.25 291.05,-110.86 74.89,-73.61 112.32,-165.39 112.32,-275.35 0,-138.13 -123.62,-227.19 -370.17,-266.26 -70.64,-10.91 -125.03,-19.99 -163.18,-29.08 -218.29,-40.89 -370.88,-111.78 -458.48,-213.56 -87.6,-100.87 -131.39,-251.72 -131.39,-452.55 0,-232.64 53.68,-418.02 161.77,-556.15 107.38,-137.22 252.9,-206.28 436.57,-206.28 69.24,0 138.46,10.9 206.99,31.81 69.23,21.8 134.22,52.7 194.97,93.6l89.01 -99.06 84.78 0 12.72 606.13 -105.97 0c-43.8,-165.39 -105.96,-290.79 -186.5,-375.31 -79.83,-84.51 -176.61,-126.31 -291.05,-126.31 -112.32,0 -204.16,28.17 -277.63,85.42 -72.76,56.34 -109.5,125.41 -109.5,207.19 0,117.23 142.71,199.02 428.1,244.45 45.92,7.27 81.95,13.63 108.09,19.09 221.82,35.44 377.23,109.95 466.24,222.64 89.02,112.68 133.53,286.25 133.53,522.52 0,255.36 -57.23,456.19 -171.67,601.59 -114.44,145.4 -271.98,218.1 -471.9,218.1 -96.78,0 -185.09,-15.45 -265.62,-46.35 -80.54,-30.9 -151.88,-74.52 -211.93,-132.67l-120.8 119.04 -101.73 0z"/>
  <g id="_2072781093840">
   <polygon class="fil2 str1" points="673.03,8130.88 673.03,11946.94 5144.26,11946.94 5144.26,8130.88 "/>
   <path class="fil1 str1" d="M2481.96 11294.38c-1.82,3.13 -1.14,1.87 0,0z"/>
   <path class="fil1 str1" d="M785.76 11470.18c1.72,13.34 34.44,34.64 44,43.7 14.26,13.56 28.37,24.05 44.57,35.33 14.51,9.97 13.59,31.33 21.76,47.69 6.49,12.92 23.7,24.18 34.41,34.45 26.74,25.51 55.76,48.66 86.97,68.72 20.15,12.92 149.2,114.74 177.57,93.03 15.39,-11.71 13.12,-33.2 26.3,-44.89 11.2,-9.9 18.1,-23.28 18.87,-38.29 2.07,-39.39 -27,-67.83 -44.73,-99.58 -20.28,-36.17 -28.19,-74.42 -38.99,-114.49 16.04,0.68 38.09,5.02 51.85,-6.62 9.43,-7.96 2.51,-11.75 13.55,-19.69 8.67,-6.28 14.29,-18.23 20.31,-26.91 7.95,-11.24 12.76,-38.51 22.7,-45.17 4.87,-3.28 16.97,-1.35 22,-1.35 7.89,0 19.03,-17.43 24.16,-22.88 21.7,-22.99 34.66,-52.22 55.87,-75.63 36.23,-40.06 72.45,-80.07 108.67,-120.08 51.22,-56.59 94.16,-120.32 146.43,-175.79 56.65,-60.11 103.45,-126.86 162.95,-184.75 23.12,-22.46 48.17,-42.19 73.17,-62.61 45.81,-29.12 88.39,-52.38 121.07,-96.69 36.19,-49.15 46,-110.5 63.37,-168.68 30.32,-101.72 37.99,-201.01 46.96,-306.6 67.15,32.25 125.83,97.62 179.2,148.6 30.09,28.69 52.33,61.49 80.17,92.13 13.74,15.05 29.43,28.57 44.01,42.74 11.2,10.96 -23.3,26.92 -31.68,32.98 -9.74,7.1 -15.68,27.47 -20.22,38.36 -9.48,22.68 -18.95,45.44 -28.41,68.14 -16.54,39.81 -37.94,78.15 -56.81,116.93 -15.85,32.64 -23.7,69.3 -36.55,103.19 -14.82,39.13 -32.27,77.35 -48.37,115.89 -6.04,14.48 -3.7,32.18 -9.39,46.88 -7.96,20.6 -17.61,41.01 -24.01,62.08 -10.33,33.46 -15.43,68.96 -21.86,103.97 -2.82,15.87 -3.97,31.59 -5.2,47.72 -2.19,29.74 -12.2,55.18 -15.13,84.41 -2.31,23.02 3.27,44.64 12.04,66.03 10.16,24.55 28.9,28.19 24.97,59.78 -2.6,21.25 -9.41,73.91 22.82,78.1 21.23,2.78 43.06,3.58 64.41,5.41 41.25,3.68 84.85,-1.17 126.28,-1.79 7.56,-0.13 7.27,-7.05 10.07,-13.87 4.41,-10.89 9.55,-7.47 21.17,-7.47 31.92,0 62.25,16.23 95.31,16.67 39.66,0.48 79.48,2.79 119,-0.62 42.26,-3.71 86.46,-3.37 127.4,-14.88 21.34,-5.87 55.84,-6.33 56.94,-34.97 1.24,-32.11 -24.64,-69.9 -50.35,-87.03 -57.78,-38.49 -133.5,-25.64 -199.15,-31.74 -16.95,-1.57 -32.65,-16.56 -41.42,-29.92 -2.76,-4.27 -18.39,-7.8 -18.06,-11.46 1.3,-13.43 2.63,-26.96 3.95,-40.5 6.24,-64.65 23.34,-118.7 52.88,-177.37 14.69,-29.25 38.36,-58.81 47,-90.27 6.53,-23.65 13.08,-47.35 19.62,-70.98 21.59,-78.33 41.53,-159.54 79.87,-231.93 23.81,-45.07 50.83,-79.3 81.13,-120 28.56,-38.37 49.15,-83.15 52.79,-131.25 1.77,-23.96 8.89,-42.01 1.85,-66.82 -29.38,-103.58 -127.15,-195.97 -194.47,-277.83 -50.04,-60.86 -101.5,-120.07 -153.55,-179.3 -22.08,-25.09 -44.97,-48.83 -68.4,-72.64 -12.63,-12.86 -23.76,-27.78 -39.72,-35.01 -28.84,-13.1 -43.03,-43.23 -73.9,-51.34 20.95,-73.13 50.99,-144.26 77.16,-215.71 21.21,-58 54.43,-105.62 93.75,-153.34 16.29,34.7 38.34,70.1 49.65,106.67 11.84,38.32 21.01,81.15 48.65,111.7 27.16,30.05 55.11,51.04 91,70.11 35.47,18.8 62.48,42.01 95.83,63.62 34.74,22.46 69.11,48.07 107.27,64.85 18.8,8.31 38.84,14.48 58.13,21.63 9.74,3.57 19.38,7.12 29.08,10.73 14.53,5.42 24.07,21.21 39.59,26.43 8.2,2.76 17.42,-4.58 24.8,-2.2 6.06,1.94 15.43,18.78 19.4,23.67 14.28,17.44 32.12,29.44 49.98,43.28 17.26,13.14 22.06,-5.91 36.66,-3.28 8.72,1.51 13.8,6.1 22.63,6.1 15.75,0 5.52,-10.21 15.63,-16.6 14.75,-9.24 30.16,15.45 46.59,0 4.67,-4.38 1.49,-22.29 8.5,-23.65 10.9,-1.99 20.77,-2.05 29.32,-9.17 28.07,-23.44 -7.95,-77.82 -22.53,-101.48 21.87,1.11 30.89,1.19 47.22,15.63 10.69,9.37 30.42,26.99 45.48,25.25 6.04,-0.67 16.31,-0.78 17.68,-7.68 1.39,-6.78 18.67,-1.3 24.63,-0.63 23.23,2.58 10.82,-23.92 35.05,-17.86 17.72,4.43 28.9,-4.03 31.12,-20.66 3.07,-23.34 27.93,-8.97 33.73,-24.97 13.4,-36.75 -0.64,-65.94 -25.44,-92.15 12.81,0.6 40.76,7.87 37.92,-12.01 -1.59,-11.03 -31.13,-34.44 -39.42,-42.75 -13.78,-13.75 -92.48,-13.51 -109.76,-11.06 -14.59,2.15 -41.29,11.72 -55.72,8.9 -5.69,-1.08 -25.07,-1.43 -26.41,-7.28 -3.71,-16.26 -2.74,-19.81 -17.09,-27.57 -13.07,-7.04 -27,-6.97 -39.62,-14.15 -23.98,-13.59 -47.92,-27.12 -71.84,-40.74 -68.64,-38.85 -121.79,-95.04 -188.79,-135.98 -34.59,-21.13 -73.1,-29.42 -93.89,-65.07 -20.43,-35.03 -30.31,-69.07 -39.54,-108.62 -9.48,-40.58 -25.66,-79.99 -38.98,-119.46 -11.82,-35.15 -13.62,-75.06 -19.35,-111.56 -2.56,-16.51 -4.37,-33.2 -7.74,-49.52 -4.08,-19.24 -21.94,-45.63 3.3,-56.49 33.49,0 48.55,-4.75 72.2,-23.97 14.33,-11.68 14.9,-17.35 33.16,-11.33 22.42,7.43 46.07,15.28 69.85,16.82 14.36,0.9 38.56,-9.43 41.18,-26.23 1.63,-10.52 3.22,-21.12 4.83,-31.66 1.11,-7.14 16.93,-7.25 20.2,-13.49 1.58,-2.97 0,-11.75 0,-15.1 0,-7.74 5.7,1.17 7.97,-2.78 6.93,-12.17 9.95,-9.56 11.29,-25.13 0.82,-9.74 2.54,-12.1 12.35,-9.81 15.6,3.6 17.59,-0.44 30.79,-10.1 7.37,-5.38 -6.32,-52.31 -7.89,-61.96 -1.1,-6.84 -1.3,-12.81 -1.3,-19.86 0,-15.79 4.06,-14.22 7.96,-26.08 17.74,-58 51.92,-169.59 -9.97,-214.87 -62.98,-67.5 -151.49,-130.26 -248.62,-105.31 -66.83,17.19 -89.98,69.48 -123.51,122.77 -8.75,13.82 -13.29,29.69 -19.05,44.9 -2.53,6.62 -8.99,16.95 -9.21,24.12 10.07,18.07 12.14,39.68 11.61,60 -0.9,34.08 -3.59,69.71 -27.55,94.95 -19.8,20.83 -23.92,16.42 -51.08,7.12 -30.99,-10.54 -49.31,-27.82 -83.61,-23.13 -18.87,2.54 -42.18,1.83 -59.63,9.97 -41.4,19.29 -80.95,37.01 -118.8,62.48 -71.58,48.03 -119.99,119.92 -173.39,186.03 -47.33,58.59 -77.53,125.52 -112.89,191.85 -17.48,32.78 -37.58,65.01 -50.9,99.73 -15.72,40.9 -27.53,87.13 -49.66,125 -42.06,71.99 -84.81,144.92 -126.91,217.47 -33.65,57.95 -78.61,117.08 -90.67,183.25 -6.73,37.3 -18.54,76.5 -19.71,114.39 -1.48,48.02 -2.95,96.08 -4.41,144.13 -0.86,28.86 12.1,53.42 13.73,80.88 1.68,27.96 3.35,55.93 5.03,83.91 2.4,40.01 -1.56,75.63 -6.24,115.66 -4.25,36.4 -8.79,71.81 -15.65,107.76 -8.64,44.84 -30.99,103.9 -20.88,149.97 4.13,18.71 11.49,17.02 3.69,35.09 -3.71,8.43 -12.24,10.1 -19.87,13.59 -18.36,8.22 -44.93,14.72 -60.42,27.51 -24.83,20.41 -48.7,40.2 -71.4,62.89 -67.71,67.7 -135.45,135.4 -203.13,203.12 -54.38,54.41 -90.4,122.65 -141.41,179.33 -56,62.23 -119.24,107.38 -163.26,180.46 -9.9,16.44 -18.94,32.69 -27.52,49.89 -8.66,17.3 -33.52,33.22 -47.44,46.69 -20.41,19.59 -46.56,70.32 -15.4,90.65 2.22,1.38 4.45,2.86 6.67,4.3 -13.99,13.95 -25.22,25.59 -35.33,42.5 -14.66,24.4 -53.92,37.08 -49.45,71.46zm1696.2 -175.8l0 0c-1.14,1.87 -1.82,3.13 0,0zm438.89 -1675.95l0 0c26.61,14.58 54.26,27.67 81.33,41.49 20.45,10.54 106.69,13.96 109.58,38.31 -18.14,1.99 -31.83,7.5 -48.83,14.35 -5.36,2.19 -13.43,2.36 -14.88,-4.93 -3.64,-18.19 -14.5,-26.92 -32.58,-33.64 -36.48,-13.52 -66.51,-34.64 -99.93,-56.9l5.31 1.32z"/>
   <path class="fil1 str1" d="M3442.8 9492.74c-86.72,60.97 -172.06,124.1 -257.85,186.49 -51.17,37.24 -102.42,74.56 -153.67,111.79 -15.75,11.48 -24.03,6.44 -39.66,14.75 -14.11,7.38 -25.89,19 -37.41,29.85 -22.97,21.54 -11.73,34.06 7.01,58.13 8.22,10.54 32.65,48.59 49.22,44.71 29.34,-6.9 52.09,-44.34 73.89,-63.08 42.93,-36.88 92.79,-67.83 138.58,-101.14 80.22,-58.32 160.46,-116.76 240.7,-175.12 21.7,-15.81 43.5,-31.66 65.23,-47.4 22.54,23.64 23.9,26.39 52.25,7.63 10.63,-7.01 -1.56,-18.41 -5.58,-25.92 -6.81,-12.92 11.89,-19.71 20.46,-26.74 69.51,-56.22 141.61,-109.39 212.51,-163.82 144.28,-110.77 288.52,-221.3 426.15,-340.32 133.32,-115.36 267.53,-227.41 390.98,-353.57 59.94,-61.29 122.08,-122.24 171.05,-192.94 41,-59.26 76.58,-114.08 80.02,-187.6 -16.21,6.77 -26.34,22.84 -38.3,34.94 -17.48,17.64 -35.05,35.23 -52.59,52.86 -34.48,34.72 -68.27,70.19 -103.35,104.32 -67.32,65.41 -135.95,129.58 -204.48,193.73 -137.58,128.65 -277.57,255.01 -424.05,373.63 -95.57,77.36 -194.46,150.65 -292.34,224.97 -50.95,38.69 -101.89,77.33 -152.84,116.02 -20.45,15.56 -40.93,31.1 -61.37,46.67 -3.94,3 -6.41,-9.41 -9.81,-8.98 -7.51,0.95 -14.75,9.26 -19.99,13.92 -23.26,20.65 -14.04,-8.14 -33.31,-6.7 -7.81,0.66 -28.39,18.62 -28.92,27.31 -0.45,7.91 17.1,25.52 13.99,30.33 -5.6,8.84 -18.21,15.43 -26.52,21.28z"/>
  </g>
 </g>
</svg>
