<?xml version="1.0" encoding="UTF-8"?>
<svg viewBox="0 0 437.7308 395.74609" xmlns="http://www.w3.org/2000/svg">
 <g transform="translate(-45.841 -191.44)">
  <path d="m376.9 584.89c-7.7062-3.5034-13.644-9.5735-18.965-19.388-8.8378-16.3-27.089-43.026-38.423-56.264-4.152-4.8493-8.016-11.402-14.448-24.5-8.623-17.56-11.224-21.887-16.759-27.88-1.5238-1.65-2.6626-3.9-2.5308-5 0.38981-3.2536-0.98336-4.4931-4.2534-3.8391-1.8596 0.37192-5.1296-0.18245-8.7112-1.4768-8.453-3.0548-16.522-4.0233-38.234-4.5894-10.725-0.2796-20.4-0.72026-21.5-0.97925s-5.2122-1.1616-9.1382-2.0059-7.526-1.6375-8-1.7628-2.3596 0.12644-4.1901 0.55937-4.3056 0.91093-5.5 1.0622-5.9011 0.83703-10.459 1.5239c-9.2409 1.3925-24.64 0.9832-27.712-0.73657-2.318-1.2973-25.017-4.0052-41-4.8912-8.4704-0.46955-12.456-0.23662-17.331 1.0129-3.4819 0.89247-9.579 1.6227-13.549 1.6227 0 0-3.6997 0.31154-5.4463-0.64865s-2.9729-2.6724-2.9729-2.6724c-0.66049-1.8266-1.2009-5.4088-1.2009-7.9606 0-5.3373 1e-3 -5.3362-10.088-11.258-8.6312-5.0664-9.6742-6.6883-10.449-16.25-0.66676-8.2252 0.0232-9.2218 8.0374-11.609 11.739-3.4975 12.454-3.325 12.485 3.0144 0.0239 4.8704 5.4301 11.059 12.593 14.415 2.2428 1.0509 5.3891 2.9365 6.9919 4.1902 2.7461 2.148 3.7218 2.2693 16.922 2.104 15.167-0.18984 40.275-2.6692 68.508-6.7648 13.093-1.8994 19.808-1.94 29.162-0.17624 8.9547 1.6884 35.838 2.1841 35.838 0.66073 0-0.57438 1.0125-1.0452 2.25-1.0462 2.6653-2e-3 32.695-4.9472 48.051-7.9124 5.9404-1.1471 13.901-2.0857 17.691-2.0857s7.1683-0.45 7.5082-1c0.34847-0.56384 5.1936-1 11.109-1 11.031 0 15.366-1.2161 17.315-4.8574 0.54064-1.0102 4.7827-4.3911 9.4268-7.5132s8.9971-6.3432 9.6734-7.1581c3.8046-4.5843-2.455-22.825-10.164-29.619l-4.139-3.6476-11.11 3.8015c-10.009 3.4248-12.993 3.9577-30.11 5.3782-10.45 0.86717-21.115 1.854-23.701 2.1929-3.2324 0.42375-6.3559 0.0693-10-1.1348-9.6741-3.1965-36.379-22.425-39.202-28.226-0.93217-1.9158-1.5979-5.8343-1.5979-9.4056 0-4.947 0.46767-6.7348 2.4372-9.317 2.2673-2.9726 2.9644-3.2352 10.001-3.7673 12.041-0.91065 15.95 2.0032 17.163 12.794 0.8281 7.3684 1.6592 8.4801 6.3396 8.4801 2.0324 0 7.0398 0.88941 11.128 1.9765 8.686 2.3098 21.508 2.5859 30.432 0.6552 6.2105-1.3436 25.022-10.124 27.298-11.422 2.8746-1.6396 7.2869-2.2097 12.076-2.2097 0 0 5.9602 0.81392 9.9434-1.0118 3.7965-1.7402 8.4459-5.2382 8.4459-5.2382 5.3254-3.4375 9.6949-6.8348 9.71-7.5497 0.0497-2.3606-3.0718-7.3486-6.4612-10.324-1.8352-1.6113-5.4693-7.08-8.0758-12.153s-5.3458-9.583-6.0874-10.023-1.3482-2.3459-1.3482-4.2356c0-3.5226-1.5655-11.178-3.1191-15.252-1.3919-3.6504-2.195-12.725-1.4686-16.596 0.86189-4.5943 4.8482-9.2946 8.5772-10.114 1.8179-0.39928 3.7018-1.8847 4.9484-3.9018 2.26-3.6567 5.7489-5.6005 10.052-5.6005 1.7056 0 3.44-0.77634 4.2189-1.8884 1.4799-2.1128 7.5735-4.0976 12.606-4.106 3.5306-6e-3 6.4413-1.1962 9.6843-3.96 2.6161-2.2296 13.325-5.0674 18.735-4.9643l4.2651 0.0812-3 1.3737c-1.65 0.75552-4.2375 1.394-5.75 1.4188-2.04 0.0335-2.75 0.54625-2.75 1.9861 0 1.0676-0.45 2.2191-1 2.559s-1 1.3049-1 2.1443c0 1.2929 1.1851 1.4271 7.75 0.87757l7.75-0.64874-2.4851 1.995c-3.6423 2.9241-1.6228 3.8417 2.8824 1.3097 2.1312-1.1978 4.9387-2.1619 6.2388-2.1424l2.3638 0.0354-2.4694 1.3672c-2.1049 1.1654-2.4252 1.9795-2.1698 5.5155 0.16473 2.2816-0.12156 4.6879-0.6362 5.3474s-1.1836 2.2115-1.4865 3.449c-0.50648 2.0689-0.20602 2.25 3.7334 2.25 2.3563 0 6.0267-0.69096 8.1564-1.5355l3.8721-1.5355-2.8835 2.6023c-2.232 2.0144-3.7502 2.5397-6.7201 2.3253-5.2108-0.37624-9.8965 3.0201-9.8965 7.1733 0 2.9401 2.1519 4.1513 3.5 1.9701 1.1727-1.8975 7.9708-0.96925 12.988 1.7734 6.1907 3.3844 6.7649 5.372 2.0449 7.0788-4.4152 1.5966-4.539 3.8-0.28238 5.0291 1.7875 0.51612 2.4625 0.97899 1.5 1.0286s-1.75 0.76519-1.75 1.5902c0 1.0754 1.0975 1.5 3.8776 1.5 3.846 0 5.2498 0.91983 6.4189 4.2059 0.54048 1.5191 0.25635 1.4922-2.5948-0.24626-1.7609-1.0737-4.1358-1.9539-5.2774-1.9559-2.1428-4e-3 -6.4243 3.7974-6.4243 5.7037 0 1.2279 2.3058 2.2925 4.9652 2.2925 0.99087 0 2.0369 0.9 2.3246 2 0.85194 3.2578 5.9536 2.4989 14.562-2.1662 8.0452-4.36 11.191-4.6489 14.507-1.3323 0.82418 0.82418 1.92 1.4985 2.4351 1.4985 3.5788 0 9.2063 8.3592 9.2063 13.675 0 5.9702-8.278 12.744-18.113 14.821-1.863 0.39348-5.7498 2.0508-8.6373 3.683-5.9988 3.3908-5.8467 2.7322-4.2781 18.532 0.53454 5.3841 1.1799 13.164 1.434 17.289s0.7334 9.3 1.0649 11.5-0.10004 8.05-0.95905 13c-1.4423 8.3114-3.3266 20.106-5.0703 31.739-0.39071 2.6065-1.3249 5.2491-2.076 5.8724s-1.3656 2.2328-1.3656 3.5766-0.52702 3.4262-1.1712 4.6276c-1.2836 2.3941-3.6437 15.413-4.6736 25.781-0.36039 3.6281-1.1939 7.2455-1.8523 8.0386s-1.2644 3.4497-1.3468 5.9034c-0.27689 8.2446-4.1408 13.961-9.4362 13.961-0.7623 0-2.9911 1.9588-4.953 4.353-2.7733 3.3844-3.567 5.2457-3.567 8.3651 0 2.6465-0.76583 4.9858-2.25 6.8726-2.2054 2.8037-2.2446 3.3172-1.9754 25.885 0.24264 20.344-0.77339 45.285-2.0786 51.024-0.25016 1.1-1.032 5.375-1.7374 9.5-2.1878 12.793-8.3613 23.369-15.936 27.299-6.3568 3.298-10.827 3.357-17.697 0.2335v6e-5zm-21.949-90.282c-0.61139-18.275-1.9903-27.799-4.3512-30.054-0.97709-0.93299-2.0906-2.7181-2.4745-3.967-1.023-3.3279-9.3394-7.2294-15.41-7.2294-5.572 0-31.83-2.6518-35.944-3.63l-2.6965-0.64121 2.9969 3.198c1.6483 1.7589 4.8078 3.999 7.0211 4.9781s4.8256 2.6385 5.8052 3.6876 5.02 5.1682 8.9789 9.1535l7.198 7.246 6.429 4e-3c13.892 9e-3 17.887 5.1671 13.169 17.004l-1.7936 4.5 5.0639 5.25c2.7851 2.8875 5.3874 5.25 5.7827 5.25s0.49678-6.6375 0.22538-14.75v-3e-5z"/>
 </g>
</svg>
